<svg width="508" height="463" viewBox="0 0 508 463" fill="none" xmlns="http://www.w3.org/2000/svg">
<ellipse cx="172" cy="160.5" rx="172" ry="160.5" fill="#0E627C" fill-opacity="0.66"/>
<ellipse cx="355" cy="315" rx="153" ry="148" fill="#FF68C3" fill-opacity="0.52"/>
<path d="M267.094 384.205C361.024 384.205 437.167 317.059 437.167 234.229C437.167 151.4 361.024 84.2537 267.094 84.2537C173.163 84.2537 97.0176 151.4 97.0176 234.229C97.0176 317.059 173.163 384.205 267.094 384.205Z" stroke="#D1E8F7" stroke-width="1.91649" stroke-miterlimit="10"/>
<path d="M128.734 151.451C132.043 151.451 134.725 149.086 134.725 146.168C134.725 143.251 132.043 140.886 128.734 140.886C125.426 140.886 122.744 143.251 122.744 146.168C122.744 149.086 125.426 151.451 128.734 151.451Z" fill="#FF68C3"/>
<path d="M437.168 245.223C440.478 245.223 443.162 242.859 443.162 239.941C443.162 237.024 440.478 234.659 437.168 234.659C433.863 234.659 431.179 237.024 431.179 239.941C431.179 242.859 433.863 245.223 437.168 245.223Z" fill="#1D675B"/>
<path d="M274.071 389.488C277.379 389.488 280.061 387.122 280.061 384.205C280.061 381.288 277.379 378.923 274.071 378.923C270.762 378.923 268.08 381.288 268.08 384.205C268.08 387.122 270.762 389.488 274.071 389.488Z" fill="#28A48F"/>
<path d="M271.034 347.095C341.104 347.095 397.906 297.006 397.906 235.217C397.906 173.428 341.104 123.339 271.034 123.339C200.964 123.339 144.162 173.428 144.162 235.217C144.162 297.006 200.964 347.095 271.034 347.095Z" stroke="#D1E8F7" stroke-width="1.42966" stroke-miterlimit="10"/>
<path d="M395.732 261.694C398.199 261.694 400.2 259.93 400.2 257.754C400.2 255.577 398.199 253.813 395.732 253.813C393.263 253.813 391.263 255.577 391.263 257.754C391.263 259.93 393.263 261.694 395.732 261.694Z" fill="#FF68C3"/>
<path d="M153.363 281.202C155.831 281.202 157.832 279.438 157.832 277.262C157.832 275.086 155.831 273.321 153.363 273.321C150.895 273.321 148.895 275.086 148.895 277.262C148.895 279.438 150.895 281.202 153.363 281.202Z" fill="#1D675B"/>
<path d="M214.205 139.026C216.673 139.026 218.674 137.262 218.674 135.085C218.674 132.909 216.673 131.145 214.205 131.145C211.737 131.145 209.736 132.909 209.736 135.085C209.736 137.262 211.737 139.026 214.205 139.026Z" fill="#28A48F"/>
<path d="M337.067 359.108H190.55C184.193 359.108 179.535 354.564 180.147 348.958L205.158 119.518C205.769 113.912 211.417 109.368 217.774 109.368H364.291C370.648 109.368 375.305 113.912 374.694 119.518L349.683 348.958C349.072 354.564 343.423 359.108 337.067 359.108Z" fill="#28A48F"/>
<path d="M326.741 359.108H180.223C173.867 359.108 169.21 354.564 169.82 348.958L194.832 119.518C195.443 113.912 201.091 109.368 207.448 109.368H353.965C360.322 109.368 364.979 113.912 364.368 119.518L339.357 348.958C338.746 354.564 333.097 359.108 326.741 359.108Z" fill="url(#paint0_linear_2_764)"/>
<path d="M321.189 351.48H187.439C181.548 351.48 177.232 347.269 177.798 342.075L201.309 126.401C201.875 121.207 207.11 116.996 213.001 116.996H346.75C352.641 116.996 356.957 121.207 356.391 126.401L332.88 342.075C332.314 347.269 327.079 351.48 321.189 351.48Z" fill="white"/>
<path d="M331.914 215.109L188.435 214.996C187.849 215.01 187.266 214.914 186.726 214.714C186.186 214.513 185.7 214.213 185.301 213.834C184.903 213.455 184.6 213.005 184.415 212.515C184.229 212.025 184.164 211.505 184.224 210.991L191.959 135.25C192.099 134.157 192.688 133.147 193.614 132.411C194.541 131.674 195.74 131.262 196.987 131.252L340.466 131.364C341.052 131.351 341.635 131.447 342.176 131.647C342.716 131.848 343.202 132.147 343.6 132.526C343.999 132.906 344.301 133.355 344.487 133.846C344.673 134.336 344.738 134.856 344.678 135.37L336.942 211.111C336.803 212.203 336.214 213.213 335.287 213.95C334.361 214.686 333.161 215.099 331.914 215.109Z" fill="url(#paint1_linear_2_764)"/>
<path d="M327.396 296.72H266.753C266.306 296.728 265.862 296.65 265.451 296.494C265.041 296.338 264.673 296.105 264.373 295.813C264.073 295.52 263.848 295.174 263.713 294.798C263.577 294.422 263.535 294.024 263.589 293.633L270.952 226.086C271.059 225.248 271.506 224.473 272.212 223.905C272.918 223.338 273.834 223.016 274.79 222.999H335.433C335.88 222.991 336.324 223.068 336.735 223.225C337.145 223.381 337.513 223.614 337.813 223.906C338.113 224.199 338.338 224.545 338.474 224.921C338.609 225.297 338.651 225.694 338.597 226.086L331.233 293.633C331.127 294.47 330.68 295.245 329.974 295.813C329.268 296.381 328.352 296.703 327.396 296.72Z" fill="url(#paint2_linear_2_764)"/>
<path d="M312.939 259.457C319.778 253.71 320.522 244.609 314.601 239.131C308.68 233.653 298.336 233.871 291.497 239.619C284.659 245.367 283.914 254.467 289.835 259.946C295.756 265.424 306.1 265.205 312.939 259.457Z" stroke="#EB00FF" stroke-width="11.6898" stroke-miterlimit="10"/>
<path d="M294.53 262.825C288.857 260.665 285.261 255.53 285.914 249.538C286.78 241.598 294.781 235.161 303.785 235.161" stroke="white" stroke-width="11.6898" stroke-miterlimit="10" stroke-linecap="round"/>
<path d="M293.184 275.184H305.66" stroke="white" stroke-width="5.98374" stroke-miterlimit="10" stroke-linecap="round"/>
<path d="M291.826 287.644H304.303" stroke="white" stroke-width="5.98374" stroke-miterlimit="10" stroke-linecap="round"/>
<path opacity="0.4" d="M285.859 281.344H311.643" stroke="white" stroke-width="5.98374" stroke-miterlimit="10" stroke-linecap="round"/>
<path d="M253.233 296.72H192.59C192.143 296.728 191.699 296.65 191.288 296.494C190.878 296.338 190.51 296.105 190.21 295.813C189.91 295.52 189.685 295.174 189.55 294.798C189.414 294.422 189.372 294.024 189.426 293.633L196.789 226.086C196.896 225.248 197.343 224.473 198.049 223.905C198.755 223.338 199.671 223.016 200.627 222.999H261.27C261.717 222.991 262.161 223.068 262.572 223.225C262.982 223.381 263.35 223.614 263.65 223.906C263.95 224.199 264.175 224.545 264.31 224.921C264.446 225.297 264.488 225.694 264.434 226.086L257.07 293.633C256.964 294.47 256.517 295.245 255.81 295.813C255.105 296.381 254.189 296.703 253.233 296.72Z" fill="#FF68C3"/>
<path d="M238.776 259.457C245.615 253.71 246.359 244.609 240.438 239.131C234.517 233.653 224.173 233.871 217.334 239.619C210.495 245.367 209.751 254.467 215.672 259.946C221.593 265.424 231.937 265.205 238.776 259.457Z" stroke="#EB00FF" stroke-width="11.6898" stroke-miterlimit="10"/>
<path d="M244.36 249.538C243.495 257.479 235.493 263.915 226.489 263.915C217.484 263.915 210.886 257.479 211.752 249.538C212.618 241.598 220.619 235.161 229.623 235.161" stroke="white" stroke-width="11.6898" stroke-miterlimit="10" stroke-linecap="round"/>
<path d="M219.021 275.184H231.498" stroke="white" stroke-width="5.98374" stroke-miterlimit="10" stroke-linecap="round"/>
<path d="M217.662 287.644H230.139" stroke="white" stroke-width="5.98374" stroke-miterlimit="10" stroke-linecap="round"/>
<path opacity="0.4" d="M211.696 281.344H237.48" stroke="white" stroke-width="5.98374" stroke-miterlimit="10" stroke-linecap="round"/>
<path d="M322.314 345.033H187.141C186.717 345.04 186.297 344.967 185.908 344.819C185.519 344.67 185.17 344.45 184.886 344.173C184.601 343.896 184.388 343.568 184.26 343.211C184.132 342.855 184.092 342.478 184.142 342.107L188.176 305.106C188.277 304.312 188.701 303.578 189.371 303.04C190.04 302.501 190.907 302.196 191.813 302.18H326.985C327.409 302.173 327.829 302.246 328.219 302.394C328.608 302.543 328.956 302.763 329.241 303.04C329.525 303.318 329.738 303.645 329.867 304.002C329.995 304.358 330.034 304.735 329.984 305.106L325.95 342.107C325.849 342.901 325.425 343.635 324.756 344.173C324.087 344.712 323.219 345.017 322.314 345.033Z" fill="url(#paint3_linear_2_764)"/>
<path d="M196.554 336.454L198.46 318.961" stroke="white" stroke-width="11.6898" stroke-miterlimit="10" stroke-linecap="round"/>
<path d="M210.545 324.2L209.209 336.454" stroke="white" stroke-width="11.6898" stroke-miterlimit="10" stroke-linecap="round"/>
<path d="M222.745 328.385L221.865 336.454" stroke="white" stroke-width="11.6898" stroke-miterlimit="10" stroke-linecap="round"/>
<path d="M236.922 314.416L234.52 336.454" stroke="white" stroke-width="11.6898" stroke-miterlimit="10" stroke-linecap="round"/>
<path d="M248.055 328.385L247.176 336.454" stroke="white" stroke-width="11.6898" stroke-miterlimit="10" stroke-linecap="round"/>
<path d="M262.129 315.389L259.832 336.454" stroke="white" stroke-width="11.6898" stroke-miterlimit="10" stroke-linecap="round"/>
<path d="M273.44 327.708L272.486 336.454" stroke="white" stroke-width="11.6898" stroke-miterlimit="10" stroke-linecap="round"/>
<path d="M285.65 331.794L285.143 336.454" stroke="white" stroke-width="11.6898" stroke-miterlimit="10" stroke-linecap="round"/>
<path d="M299.704 318.961L297.797 336.454" stroke="white" stroke-width="11.6898" stroke-miterlimit="10" stroke-linecap="round"/>
<path d="M313.086 312.301L310.453 336.454" stroke="white" stroke-width="11.6898" stroke-miterlimit="10" stroke-linecap="round"/>
<path d="M200.057 203.494L207.654 213.988C207.997 214.462 208.113 215.036 207.979 215.585C207.844 216.134 207.468 216.614 206.934 216.92L205.706 217.623C203.651 218.801 201.181 219.281 198.755 218.973C196.329 218.666 194.112 217.592 192.517 215.951L182.436 205.584L200.057 203.494Z" fill="#FFCCB3"/>
<path d="M194.26 207.532C194.26 207.532 197.073 216.049 202.724 218.782C204.191 218.281 205.601 217.657 206.933 216.92L200.596 207.532" fill="#FCBA9F"/>
<path d="M64.2988 245.834L94.1378 233.225C96.9493 232.037 99.3265 230.177 100.999 227.857L129.825 187.871C131.619 185.382 134.222 183.426 137.295 182.259L178.812 166.486L169.924 225.759L169.767 227.949C169.767 227.949 158.786 253.028 131.872 262.139L88.8405 285.348L64.2988 245.834Z" fill="#FFCCB3"/>
<path d="M96.7714 231.833C96.7714 231.833 110.886 262.901 131.872 262.139L118.473 269.366C118.473 269.366 72.996 261.927 90.0192 234.903L96.7714 231.833Z" fill="#FCBA9F"/>
<path d="M172.386 177.455C172.386 177.455 157.706 185.299 158.485 203.494L176.113 197.685L172.386 177.455Z" fill="#FCBA9F"/>
<path d="M209.26 203.494L216.857 213.988C217.199 214.462 217.316 215.036 217.181 215.585C217.047 216.134 216.671 216.614 216.137 216.92L214.909 217.623C212.854 218.801 210.384 219.281 207.958 218.973C205.532 218.666 203.315 217.592 201.719 215.951L191.639 205.584L209.26 203.494Z" fill="#FFCCB3"/>
<path d="M321.565 207.633L178.087 207.52C177.501 207.534 176.918 207.438 176.378 207.237C175.837 207.037 175.351 206.737 174.953 206.358C174.554 205.979 174.252 205.529 174.066 205.039C173.88 204.548 173.815 204.029 173.875 203.515L181.61 127.774C181.751 126.681 182.339 125.671 183.266 124.935C184.192 124.198 185.392 123.786 186.639 123.775L330.118 123.888C330.704 123.874 331.286 123.971 331.827 124.171C332.367 124.371 332.853 124.671 333.252 125.05C333.65 125.429 333.952 125.879 334.138 126.369C334.324 126.86 334.389 127.379 334.329 127.893L326.594 203.634C326.454 204.727 325.865 205.737 324.939 206.473C324.012 207.21 322.813 207.622 321.565 207.633Z" fill="#28A48F"/>
<path d="M187.587 168.709C187.587 168.709 200.466 166.412 203.933 171.742C207.398 177.071 210.387 187.079 219.61 185.789C228.832 184.498 235.891 158.333 244.957 158.571C254.024 158.81 250.827 175.947 260.696 176.186C270.564 176.425 268.809 166.614 275.386 166.887C283.365 167.219 280.39 187.55 290.793 187.789C301.196 188.029 302.894 160.934 318.62 161.41" stroke="white" stroke-width="7.56507" stroke-miterlimit="10" stroke-linecap="round"/>
<path d="M194.912 136.46L220.155 136.48" stroke="white" stroke-width="11.9991" stroke-miterlimit="10" stroke-linecap="round"/>
<path opacity="0.4" d="M193.87 146.664L246.037 146.705" stroke="white" stroke-width="11.9991" stroke-miterlimit="10" stroke-linecap="round"/>
<path d="M145.027 207.257L163.433 200.108L182.255 188.778C187.205 185.798 197.543 184.456 201.264 188.598C205.05 192.812 200.798 201.146 196.207 204.682L178.812 218.077L169.766 227.949L145.027 207.257Z" fill="#FFCCB3"/>
<path d="M182.436 193.08C182.436 193.08 184.92 201.53 191.363 202.991L198.196 197.901C198.889 197.446 199.469 196.871 199.902 196.212C200.335 195.553 200.611 194.823 200.714 194.067C200.816 193.31 200.743 192.543 200.498 191.813C200.254 191.082 199.843 190.403 199.291 189.817C198.327 188.794 196.982 188.105 195.496 187.875C194.01 187.646 192.479 187.889 191.178 188.562L182.436 193.08Z" stroke="#FF967C" stroke-width="3" stroke-linecap="round"/>
<path d="M95.2709 232.18C95.2709 232.18 91.704 254.675 122.744 267.555C122.744 267.555 100.446 285.592 91.8495 288.625C83.2533 291.657 50.9542 260.665 62.4421 243.074C65.6638 238.141 95.2709 232.18 95.2709 232.18Z" fill="#28A48F"/>
<path d="M212.882 208.497C212.882 208.497 200.784 208.714 196.573 210.658L193.533 207.532L212.184 207.533L212.882 208.497Z" fill="#FCBA9F"/>
<path d="M435.641 207.633H349.619C343.139 207.633 338.351 203 338.925 197.286L350.467 82.346C351.04 76.6323 356.758 72 363.238 72H449.26C455.742 72 460.527 76.6323 459.953 82.346L448.411 197.286C447.838 203 442.119 207.633 435.641 207.633Z" fill="#FF68C3"/>
<path d="M423.326 136.902C436.95 125.41 438.32 107.182 426.394 96.1886C414.466 85.1948 393.755 85.5979 380.134 97.0893C366.513 108.581 365.14 126.809 377.067 137.802C388.995 148.797 409.706 148.393 423.326 136.902Z" fill="white"/>
<path d="M403.554 117.89L425.147 135.257C425.147 135.257 430.06 130.601 431.525 127.273L403.554 117.89Z" fill="url(#paint4_linear_2_764)"/>
<path d="M404.991 84.5293L401.923 115.087C401.854 115.644 401.972 116.206 402.262 116.704C402.552 117.202 403.001 117.614 403.553 117.89L432.853 132.274C432.853 132.274 450.251 89.4719 404.991 84.5293Z" fill="#28A48F"/>
<path d="M359.131 166.95H394.768" stroke="white" stroke-width="12" stroke-miterlimit="10" stroke-linecap="round"/>
<path d="M356.522 192.931H392.159" stroke="white" stroke-width="12" stroke-miterlimit="10" stroke-linecap="round"/>
<path opacity="0.4" d="M357.842 179.794H431.487" stroke="white" stroke-width="12" stroke-miterlimit="10" stroke-linecap="round"/>
<path d="M329.85 292.308C329.85 292.308 341.337 289.606 347.451 295.412C347.451 295.412 358.44 293.652 362.908 299.043C362.908 299.043 372.65 299.54 375.472 303.045C377.818 303.33 380.037 304.159 381.902 305.446C383.767 306.733 385.212 308.433 386.09 310.373C388.754 315.91 386.495 347.92 383.847 359.391C383.185 362.26 383.411 365.233 384.503 367.998L391.239 385.067L344.636 402.246L333.572 376.798C333.572 376.798 320.104 357.713 318.18 354.32C316.256 350.927 319.517 322.771 312.949 305.182L329.85 292.308Z" fill="#FFCCB3"/>
<path d="M339.583 390.623L338.239 387.531C338.239 387.531 362.421 386.168 384.503 367.998L386.616 373.35C386.616 373.35 383.888 384.406 371.47 389.617C359.051 394.828 339.583 390.623 339.583 390.623Z" fill="#FCBA9F"/>
<path d="M339.583 390.623C339.583 390.623 368.854 392.974 386.616 373.35C386.616 373.35 393.173 376.382 403.243 398.578C406.336 405.396 354.691 429.668 346.341 419.579C346.341 419.579 339.132 406.132 339.583 390.623Z" fill="#1D675B"/>
<path d="M315.814 315.8C315.814 315.8 314.804 320.523 310.03 320.524C306.916 320.524 293.416 316.927 284.405 314.427C281.953 313.746 279.323 313.746 276.872 314.427C274.42 315.107 272.265 316.435 270.697 318.231L270.149 318.858C269.877 319.169 269.68 319.525 269.568 319.905C269.457 320.286 269.434 320.682 269.502 321.07C269.569 321.458 269.725 321.83 269.96 322.163C270.196 322.497 270.505 322.784 270.87 323.009C278.499 327.705 299.098 340.452 301.733 342.775C304.976 345.634 323.031 361.663 323.031 361.663L315.814 315.8Z" fill="#FFCCB3"/>
<path d="M314.718 311.067C314.718 311.067 324.475 322.714 323.031 325.263C321.586 327.813 306.456 320.018 306.456 320.018C306.456 320.018 318.665 322.787 314.718 311.067Z" fill="#FCBA9F"/>
<path d="M312.949 305.182L296.53 261.214C295.967 259.706 295.753 258.113 295.901 256.53C296.049 254.948 296.556 253.407 297.391 252.001C298.227 250.594 299.374 249.35 300.765 248.342C302.157 247.334 303.763 246.582 305.49 246.131C306.903 245.763 308.42 245.863 309.756 246.412C311.092 246.962 312.154 247.922 312.741 249.114L335.775 295.805L312.949 305.182Z" fill="#FFCCB3"/>
<path d="M305.83 286.115C306.295 286.789 306.914 287.371 307.646 287.824C308.378 288.278 309.209 288.593 310.086 288.75" stroke="#FF967C" stroke-width="3" stroke-linecap="round"/>
<path d="M311.737 263.606C313.735 262.826 315.939 261.735 316.887 260.462L310.773 247.66C310.642 247.385 310.446 247.137 310.198 246.932C309.95 246.728 309.656 246.573 309.335 246.477C309.014 246.381 308.674 246.346 308.336 246.375C307.998 246.404 307.672 246.496 307.378 246.644C305.202 247.751 302.33 249.749 302.219 252.618L306.354 261.692C306.557 262.135 306.859 262.537 307.242 262.875C307.625 263.213 308.082 263.479 308.584 263.658C309.087 263.837 309.625 263.924 310.167 263.916C310.708 263.907 311.243 263.801 311.737 263.606Z" stroke="#FF967C" stroke-width="3" stroke-linecap="round"/>
<path d="M333.922 292.049L339.583 303.044" stroke="#FF967C" stroke-width="3" stroke-linecap="round"/>
<path d="M347.677 295.636C350.554 299.273 352.095 303.6 352.094 308.034" stroke="#FF967C" stroke-width="3" stroke-linecap="round"/>
<path d="M363.178 299.249C363.178 299.249 366.028 305.011 366.263 309.568" stroke="#FF967C" stroke-width="3" stroke-linecap="round"/>
<path d="M375.871 303.387C376.993 305.818 377.428 308.454 377.139 311.067" stroke="#FF967C" stroke-width="3" stroke-linecap="round"/>
<path d="M282.926 328.385C282.926 328.385 286.297 324.609 285.141 322.715C283.984 320.821 278.84 318.143 275.867 318.435C274.448 318.623 273.079 319.034 271.825 319.649C271.597 319.754 271.404 319.91 271.266 320.101C271.127 320.292 271.048 320.512 271.035 320.739C271.023 320.965 271.077 321.191 271.194 321.393C271.311 321.595 271.485 321.767 271.701 321.891L282.926 328.385Z" stroke="#FF967C" stroke-width="3" stroke-linecap="round"/>
<path d="M224.946 374.425H122.228C121.804 374.432 121.383 374.36 120.994 374.211C120.604 374.063 120.256 373.842 119.972 373.565C119.687 373.288 119.474 372.96 119.346 372.603C119.217 372.247 119.177 371.871 119.229 371.499L123.262 334.498C123.363 333.704 123.787 332.97 124.456 332.432C125.125 331.894 125.993 331.588 126.899 331.573H229.618C230.042 331.565 230.462 331.638 230.851 331.787C231.241 331.935 231.589 332.155 231.874 332.432C232.158 332.71 232.371 333.038 232.5 333.394C232.628 333.751 232.667 334.127 232.617 334.498L228.583 371.499C228.482 372.293 228.058 373.027 227.389 373.566C226.72 374.104 225.852 374.409 224.946 374.425Z" fill="#FF68C3"/>
<path d="M131.871 341.222H195.263" stroke="#EB00FF" stroke-width="11.6898" stroke-miterlimit="10" stroke-linecap="round"/>
<path d="M131.871 341.222H175.923" stroke="white" stroke-width="11.6898" stroke-miterlimit="10" stroke-linecap="round"/>
<path d="M130.923 352.999H194.315" stroke="#EB00FF" stroke-width="11.6898" stroke-miterlimit="10" stroke-linecap="round"/>
<path d="M130.923 352.999H157.26" stroke="white" stroke-width="11.6898" stroke-miterlimit="10" stroke-linecap="round"/>
<path d="M128.85 364.776H192.242" stroke="#EB00FF" stroke-width="11.6898" stroke-miterlimit="10" stroke-linecap="round"/>
<path d="M128.85 364.776H144.956" stroke="white" stroke-width="11.6898" stroke-miterlimit="10" stroke-linecap="round"/>
<path d="M217.702 344.562C219.795 344.562 221.49 343.066 221.49 341.222C221.49 339.377 219.795 337.882 217.702 337.882C215.611 337.882 213.915 339.377 213.915 341.222C213.915 343.066 215.611 344.562 217.702 344.562Z" fill="white"/>
<path d="M216.475 355.824C218.568 355.824 220.263 354.328 220.263 352.484C220.263 350.639 218.568 349.144 216.475 349.144C214.383 349.144 212.688 350.639 212.688 352.484C212.688 354.328 214.383 355.824 216.475 355.824Z" fill="white"/>
<path d="M215.104 368.116C217.196 368.116 218.892 366.62 218.892 364.776C218.892 362.931 217.196 361.436 215.104 361.436C213.012 361.436 211.316 362.931 211.316 364.776C211.316 366.62 213.012 368.116 215.104 368.116Z" fill="white"/>
<defs>
<linearGradient id="paint0_linear_2_764" x1="244.56" y1="29.9069" x2="350.12" y2="629.795" gradientUnits="userSpaceOnUse">
<stop stop-color="white"/>
<stop offset="1" stop-color="#94B9FF"/>
</linearGradient>
<linearGradient id="paint1_linear_2_764" x1="260.455" y1="131.052" x2="270.612" y2="310.361" gradientUnits="userSpaceOnUse">
<stop stop-color="white"/>
<stop offset="1" stop-color="#94B9FF"/>
</linearGradient>
<linearGradient id="paint2_linear_2_764" x1="299.225" y1="222.823" x2="315.877" y2="379.194" gradientUnits="userSpaceOnUse">
<stop stop-color="white"/>
<stop offset="1" stop-color="#94B9FF"/>
</linearGradient>
<linearGradient id="paint3_linear_2_764" x1="253.431" y1="302.078" x2="256.356" y2="393.912" gradientUnits="userSpaceOnUse">
<stop stop-color="white"/>
<stop offset="1" stop-color="#94B9FF"/>
</linearGradient>
<linearGradient id="paint4_linear_2_764" x1="416.842" y1="117.849" x2="419.34" y2="154.935" gradientUnits="userSpaceOnUse">
<stop stop-color="white"/>
<stop offset="1" stop-color="#94B9FF"/>
</linearGradient>
</defs>
</svg>
