<svg width="386" height="514" viewBox="0 0 386 514" fill="none" xmlns="http://www.w3.org/2000/svg">
<path d="M263.691 514H94.9392C81.2516 514 72.0369 503.16 74.3577 489.787L142.322 98.2121C144.643 84.8404 157.621 74 171.309 74H340.06C353.748 74 362.963 84.8404 360.642 98.2121L292.678 489.787C290.357 503.16 277.379 514 263.691 514Z" fill="#D1E8F7"/>
<path d="M243.03 514H74.8664C61.2265 514 52.0432 503.16 54.3567 489.787L122.084 98.2121C124.397 84.8404 137.329 74 150.97 74H319.133C332.774 74 341.956 84.8404 339.643 98.2121L271.916 489.787C269.603 503.16 256.67 514 243.03 514Z" fill="#D1E8F7"/>
<path d="M243.531 502H77.8425C70.7547 502 65.9834 496.369 67.1853 489.422L134.46 100.578C135.662 93.631 142.381 88 149.469 88H315.158C322.245 88 327.017 93.631 325.815 100.578L258.54 489.422C257.338 496.369 250.619 502 243.531 502Z" fill="#51009D"/>
<path d="M259.762 218H100L116.651 127.942C117.742 122.451 123.173 118 128.781 118H279.628C285.236 118 288.899 122.451 287.808 127.942L271.892 208.058C270.801 213.549 265.371 218 259.762 218Z" fill="url(#paint0_linear_2_776)"/>
<path d="M246.842 208H8.3485C2.75567 208 -0.896095 203.549 0.191712 198.058L16.0622 117.942C17.15 112.451 22.5651 108 28.1579 108H266.651C272.244 108 275.896 112.451 274.808 117.942L258.938 198.058C257.85 203.549 252.434 208 246.842 208Z" fill="#FF68C3"/>
<path d="M230.907 490.315L83.3293 491C77.7493 491 74.106 486.579 75.1913 481.126L91.0251 401.559C92.1104 396.106 97.5131 391.685 103.093 391.685L250.671 391C256.25 391 259.894 395.421 258.809 400.874L242.975 480.441C241.89 485.894 236.486 490.315 230.907 490.315Z" fill="#8400FF"/>
<path d="M100 467C104.211 434.967 135.5 409 169.888 409C204.275 409 228.739 434.967 224.529 467" stroke="#CB9EF4" stroke-width="16.5208" stroke-miterlimit="10" stroke-linecap="round"/>
<path d="M100 467C104.234 434.967 135.698 409 170.277 409C187.391 409 202.06 415.361 212 425.67" stroke="#28A48F" stroke-width="16.5208" stroke-miterlimit="10" stroke-linecap="round"/>
<path d="M213.023 379H108.557C102.982 379 99.2128 374.536 100.14 369.029L122.203 237.971C123.13 232.464 128.401 228 133.977 228H238.442C244.018 228 247.787 232.464 246.86 237.971L224.797 369.029C223.87 374.536 218.599 379 213.023 379Z" fill="url(#paint1_linear_2_776)"/>
<path d="M138.321 285.002H122.381C121.504 285.033 120.663 285.38 119.997 285.987C119.332 286.593 118.88 287.423 118.717 288.339L110.06 343.66C109.975 344.069 109.981 344.494 110.074 344.901C110.168 345.309 110.349 345.687 110.602 346.009C110.854 346.331 111.173 346.588 111.533 346.759C111.893 346.93 112.284 347.012 112.679 346.998H128.619C129.496 346.966 130.337 346.619 131.002 346.012C131.669 345.406 132.12 344.576 132.284 343.66L140.941 288.339C141.025 287.93 141.019 287.505 140.925 287.098C140.832 286.691 140.651 286.312 140.398 285.991C140.146 285.669 139.828 285.412 139.467 285.24C139.108 285.069 138.715 284.988 138.321 285.002Z" fill="#28A48F"/>
<path d="M169.134 304.002H152.078C151.14 304.033 150.24 304.38 149.528 304.986C148.815 305.592 148.332 306.419 148.157 307.334L142.063 343.666C141.974 344.075 141.979 344.499 142.08 344.905C142.18 345.311 142.373 345.69 142.644 346.012C142.914 346.333 143.254 346.589 143.64 346.76C144.025 346.931 144.444 347.012 144.867 346.998H161.922C162.86 346.967 163.76 346.62 164.472 346.014C165.185 345.409 165.668 344.581 165.843 343.666L171.936 307.334C172.026 306.925 172.021 306.502 171.921 306.095C171.819 305.689 171.627 305.31 171.357 304.989C171.086 304.667 170.745 304.412 170.361 304.241C169.975 304.069 169.555 303.988 169.134 304.002Z" fill="#28A48F"/>
<path d="M208.275 251.002H192.059C191.167 251.033 190.313 251.379 189.635 251.984C188.957 252.589 188.497 253.415 188.332 254.329L174.06 343.671C173.975 344.08 173.98 344.503 174.075 344.908C174.172 345.314 174.355 345.692 174.612 346.013C174.869 346.334 175.193 346.589 175.559 346.76C175.925 346.93 176.324 347.012 176.725 346.998H192.94C193.833 346.967 194.688 346.62 195.365 346.016C196.043 345.411 196.502 344.584 196.669 343.671L210.94 254.329C211.025 253.92 211.02 253.497 210.924 253.091C210.829 252.686 210.646 252.308 210.389 251.987C210.132 251.666 209.808 251.411 209.441 251.24C209.075 251.07 208.676 250.988 208.275 251.002Z" fill="#28A48F"/>
<path d="M230.627 285.001H216.506C215.729 285.027 214.984 285.317 214.394 285.824C213.804 286.331 213.404 287.023 213.259 287.787L204.053 343.213C203.978 343.555 203.983 343.909 204.066 344.249C204.149 344.588 204.309 344.905 204.533 345.173C204.756 345.442 205.039 345.656 205.357 345.799C205.677 345.942 206.024 346.01 206.373 345.999H220.494C221.271 345.973 222.016 345.683 222.606 345.176C223.196 344.67 223.596 343.977 223.741 343.213L232.948 287.787C233.022 287.445 233.017 287.091 232.934 286.751C232.851 286.412 232.691 286.095 232.467 285.827C232.243 285.558 231.961 285.344 231.642 285.201C231.324 285.058 230.976 284.99 230.627 285.001Z" fill="#28A48F"/>
<path d="M138 245H182" stroke="#28A48F" stroke-width="10" stroke-miterlimit="10" stroke-linecap="round"/>
<path d="M141 258H164" stroke="#28A48F" stroke-width="10" stroke-miterlimit="10" stroke-linecap="round"/>
<path opacity="0.6" d="M116 357H124" stroke="#28A48F" stroke-width="6" stroke-miterlimit="10" stroke-linecap="round"/>
<path opacity="0.6" d="M148 357H156" stroke="#28A48F" stroke-width="6" stroke-miterlimit="10" stroke-linecap="round"/>
<path opacity="0.6" d="M177 357H188" stroke="#28A48F" stroke-width="6" stroke-miterlimit="10" stroke-linecap="round"/>
<path opacity="0.6" d="M205 358H214" stroke="#28A48F" stroke-width="6" stroke-miterlimit="10" stroke-linecap="round"/>
<path d="M351.792 379H246.616C241.002 379 237.208 374.536 238.141 369.029L260.354 237.971C261.287 232.464 266.594 228 272.208 228H377.384C382.998 228 386.793 232.464 385.859 237.971L363.646 369.029C362.713 374.536 357.405 379 351.792 379Z" fill="url(#paint2_linear_2_776)"/>
<path d="M275.605 318.001H261.359C260.575 318.028 259.824 318.328 259.229 318.853C258.633 319.376 258.23 320.093 258.084 320.884L253.053 348.116C252.978 348.47 252.983 348.836 253.067 349.188C253.15 349.539 253.312 349.867 253.538 350.145C253.763 350.423 254.048 350.644 254.37 350.792C254.691 350.94 255.042 351.011 255.395 350.999H269.641C270.425 350.972 271.176 350.672 271.771 350.147C272.367 349.623 272.77 348.907 272.916 348.116L277.947 320.884C278.022 320.53 278.017 320.163 277.933 319.812C277.85 319.46 277.688 319.133 277.462 318.855C277.236 318.577 276.952 318.355 276.63 318.208C276.308 318.06 275.958 317.989 275.605 318.001Z" fill="#28A48F"/>
<path d="M311.561 276.001H297.053C296.254 276.028 295.49 276.328 294.883 276.851C294.277 277.373 293.865 278.088 293.717 278.877L283.054 348.123C282.978 348.476 282.982 348.841 283.068 349.192C283.153 349.543 283.317 349.869 283.547 350.146C283.777 350.424 284.067 350.645 284.395 350.793C284.722 350.94 285.079 351.011 285.439 350.999H299.948C300.746 350.972 301.51 350.672 302.117 350.149C302.723 349.626 303.135 348.912 303.283 348.123L313.946 278.877C314.022 278.524 314.018 278.158 313.932 277.808C313.847 277.457 313.683 277.13 313.453 276.853C313.223 276.576 312.933 276.355 312.605 276.207C312.278 276.059 311.921 275.989 311.561 276.001Z" fill="#28A48F"/>
<path d="M333.846 297.001H321.032C320.327 297.028 319.651 297.32 319.116 297.832C318.58 298.343 318.217 299.042 318.086 299.813L311.047 348.187C310.98 348.532 310.985 348.89 311.06 349.232C311.135 349.575 311.281 349.895 311.484 350.165C311.687 350.437 311.942 350.653 312.232 350.797C312.521 350.942 312.837 351.01 313.154 350.999H325.968C326.673 350.972 327.349 350.68 327.884 350.168C328.42 349.658 328.783 348.958 328.914 348.187L335.953 299.813C336.02 299.468 336.015 299.111 335.94 298.768C335.865 298.425 335.72 298.106 335.517 297.834C335.314 297.563 335.058 297.347 334.768 297.202C334.479 297.058 334.163 296.99 333.846 297.001Z" fill="#28A48F"/>
<path d="M369.054 279.002H351.525C350.56 279.032 349.636 279.375 348.903 279.973C348.17 280.57 347.674 281.387 347.494 282.289L336.065 347.71C335.973 348.114 335.979 348.532 336.082 348.933C336.185 349.334 336.384 349.708 336.662 350.024C336.94 350.341 337.29 350.594 337.685 350.763C338.081 350.932 338.512 351.012 338.946 350.998H356.476C357.44 350.968 358.365 350.625 359.097 350.027C359.83 349.43 360.327 348.613 360.506 347.71L371.935 282.289C372.027 281.886 372.022 281.469 371.918 281.067C371.815 280.666 371.617 280.293 371.339 279.976C371.061 279.659 370.711 279.405 370.315 279.237C369.919 279.068 369.487 278.988 369.054 279.002Z" fill="#28A48F"/>
<path d="M271 245H311" stroke="#28A48F" stroke-width="10" stroke-miterlimit="10" stroke-linecap="round"/>
<path d="M267 258H288" stroke="#28A48F" stroke-width="10" stroke-miterlimit="10" stroke-linecap="round"/>
<path opacity="0.6" d="M259 360H264" stroke="#28A48F" stroke-width="6" stroke-miterlimit="10" stroke-linecap="round"/>
<path opacity="0.6" d="M286 360H294" stroke="#28A48F" stroke-width="6" stroke-miterlimit="10" stroke-linecap="round"/>
<path opacity="0.6" d="M314 360H322" stroke="#28A48F" stroke-width="6" stroke-miterlimit="10" stroke-linecap="round"/>
<path d="M128 152.817C128 152.817 140.131 150.366 143.979 156.024C147.827 161.682 151.674 172.311 160.396 170.933C169.118 169.555 175.788 141.755 184.509 142.002C193.231 142.247 189.383 160.452 198.874 160.698C208.366 160.944 206.057 150.612 213.753 150.612C221.449 150.612 218.883 172.753 228.887 172.998C238.891 173.245 237.865 144.462 253 144.953" stroke="#28A48F" stroke-width="5" stroke-miterlimit="10" stroke-linecap="round"/>
<path d="M38 136H100" stroke="#28A48F" stroke-width="10" stroke-miterlimit="10" stroke-linecap="round"/>
<path opacity="0.6" d="M54 158H79" stroke="#28A48F" stroke-width="10" stroke-miterlimit="10" stroke-linecap="round"/>
<path d="M110 371H128" stroke="#8400FF" stroke-width="5" stroke-miterlimit="10" stroke-linecap="round"/>
<path opacity="0.5" d="M126 365H138" stroke="#8400FF" stroke-width="5" stroke-miterlimit="10" stroke-linecap="round"/>
<path d="M146 455L160.383 445.008L170.515 451.73L184 442" stroke="#28A48F" stroke-width="6.50414" stroke-linecap="round" stroke-linejoin="round"/>
<path d="M175 438H192V454" stroke="#28A48F" stroke-width="6.50414" stroke-linecap="round" stroke-linejoin="round"/>
<path d="M319.685 57.9973H270.97C270.374 58.0196 269.782 57.9038 269.239 57.6569C268.697 57.4106 268.22 57.0402 267.846 56.577C267.472 56.1131 267.212 55.569 267.086 54.9865C266.96 54.4047 266.972 53.8013 267.122 53.2251L274.608 14.7743C274.897 13.4601 275.614 12.2791 276.646 11.4155C277.679 10.5519 278.969 10.0552 280.315 10.0029H329.03C329.625 9.97983 330.218 10.0963 330.761 10.3426C331.304 10.5895 331.781 10.9592 332.154 11.4231C332.529 11.8863 332.788 12.4311 332.914 13.0129C333.04 13.5947 333.027 14.1981 332.878 14.7743L325.391 53.2251C325.103 54.5394 324.386 55.7204 323.354 56.584C322.321 57.4476 321.03 57.9443 319.685 57.9973Z" fill="#2B0152"/>
<path d="M286.815 19L321.325 19.0068C321.573 18.9954 321.819 19.0434 322.046 19.1461C322.273 19.2495 322.472 19.404 322.631 19.5995C322.789 19.795 322.9 20.0247 322.958 20.272C323.014 20.5185 323.014 20.7756 322.958 21.0228L322.485 23.6672C322.406 24.0521 322.241 24.4127 322.004 24.7208C321.766 25.0289 321.461 25.2769 321.114 25.445L302.208 34.7618C301.915 34.9201 301.589 35.0022 301.258 35C300.928 34.9977 300.602 34.9117 300.312 34.7504L284.758 25.1514C284.474 24.9688 284.252 24.701 284.123 24.3845C283.995 24.0681 283.966 23.7181 284.04 23.3842L284.464 21.0152C284.579 20.4583 284.873 19.957 285.3 19.5911C285.726 19.2259 286.26 19.0175 286.815 19Z" fill="#28A48F"/>
<path d="M285.603 28.1706L299.29 37.6329C299.476 37.7482 299.685 37.8092 299.899 37.8092C300.112 37.8092 300.322 37.7489 300.508 37.6337L317.333 28.1773C318.238 27.6689 319.15 28.3144 318.979 29.3426L316.478 44.4153C316.287 45.4058 315.801 46.2976 315.096 46.9477C314.391 47.5978 313.509 47.9684 312.591 48L283.768 47.994C283.358 48.0136 282.951 47.9284 282.576 47.7454C282.203 47.5624 281.872 47.2867 281.611 46.9394C281.349 46.5922 281.164 46.1824 281.071 45.7432C280.976 45.3041 280.977 44.8469 281.07 44.4077L283.571 29.3351C283.61 29.0948 283.699 28.8681 283.83 28.6715C283.961 28.4749 284.131 28.3144 284.327 28.2022C284.524 28.09 284.741 28.0282 284.962 28.0229C285.184 28.0176 285.403 28.0681 285.603 28.1706Z" fill="#28A48F"/>
<path d="M333.5 19C339.299 19 344 14.7465 344 9.5C344 4.25351 339.299 0 333.5 0C327.701 0 323 4.25351 323 9.5C323 14.7465 327.701 19 333.5 19Z" fill="#CB9EF4"/>
<defs>
<linearGradient id="paint0_linear_2_776" x1="189.32" y1="117.763" x2="201.649" y2="331.565" gradientUnits="userSpaceOnUse">
<stop stop-color="white"/>
<stop offset="1" stop-color="#94B9FF"/>
</linearGradient>
<linearGradient id="paint1_linear_2_776" x1="156.482" y1="179.956" x2="208.14" y2="546.619" gradientUnits="userSpaceOnUse">
<stop stop-color="white"/>
<stop offset="1" stop-color="#2ABA96"/>
</linearGradient>
<linearGradient id="paint2_linear_2_776" x1="294.867" y1="179.956" x2="346.189" y2="546.715" gradientUnits="userSpaceOnUse">
<stop stop-color="#57E4CC"/>
<stop offset="1" stop-color="#94B9FF"/>
</linearGradient>
</defs>
</svg>
